<?xml version="1.0" encoding="utf-8"?>
<!-- Generator: Adobe Illustrator 24.1.1, SVG Export Plug-In . SVG Version: 6.00 Build 0)  -->
<svg version="1.1" id="Layer_1" xmlns="http://www.w3.org/2000/svg" xmlns:xlink="http://www.w3.org/1999/xlink" x="0px" y="0px"
	 viewBox="0 0 512 512" style="enable-background:new 0 0 512 512;" xml:space="preserve">
<style type="text/css">
	.st0{fill:#333333;}
</style>
<g id="XMLID_1_">
	<path id="XMLID_5_" class="st0" d="M256,0C114.5,0,0,114.5,0,256s114.5,256,256,256s256-114.5,256-256S397.5,0,256,0z M385.4,204.8
		c0,2.8,0,5.6,0,8.4c0,85.6-65.2,183.4-183.4,183.4c-36.3,0-70.7-10.2-98.7-28.9c4.7,0.9,10.2,0.9,15.8,0.9
		c29.8,0,57.7-10.2,80.1-27.9c-27.9-0.9-52.1-19.5-60.5-44.7c3.7,0.9,8.4,0.9,12.1,0.9c5.6,0,11.2-0.9,16.8-1.9
		c-29.8-5.6-52.1-31.7-52.1-63.3v-0.9c8.4,4.7,18.6,7.4,28.9,8.4c-17.7-11.2-28.9-31.7-28.9-54c0-12.1,2.8-23.3,8.4-32.6
		c31.7,39.1,79.1,65.2,133.1,67c-0.9-4.7-1.9-9.3-1.9-14.9c0-35.4,28.9-64.2,64.2-64.2c18.6,0,35.4,7.4,47.5,20.5
		c14.9-2.8,28.9-8.4,41-15.8c-4.7,14.9-14.9,27.9-27.9,35.4c13-1.9,25.1-4.7,37.2-10.2C408.7,184.3,397.5,195.5,385.4,204.8z"/>
</g>
</svg>
